<svg width="36" height="24" viewBox="0 0 36 24" fill="none" xmlns="http://www.w3.org/2000/svg">
<path fill-rule="evenodd" clip-rule="evenodd" d="M4.2854 14.9718C4.2854 17.0525 5.60833 19.1332 8.2542 20.7207C13.5459 23.8957 22.1256 23.8957 27.4173 20.7207C30.0632 19.1332 31.3861 17.0525 31.3861 14.9718V10.5716C31.3861 8.49091 30.0632 6.41021 27.4173 4.82269C22.1256 1.64765 13.5459 1.64765 8.2542 4.82269C5.60833 6.41021 4.2854 8.49091 4.2854 10.5716V14.9718Z" fill="url(#paint0_linear_21_234)"/>
<mask id="mask0_21_234" style="mask-type:alpha" maskUnits="userSpaceOnUse" x="4" y="2" width="28" height="22">
<path fill-rule="evenodd" clip-rule="evenodd" d="M4.2854 14.9718C4.2854 17.0525 5.60833 19.1332 8.2542 20.7207C13.5459 23.8957 22.1256 23.8957 27.4173 20.7207C30.0632 19.1332 31.3861 17.0525 31.3861 14.9718V10.5716C31.3861 8.49091 30.0632 6.41021 27.4173 4.82269C22.1256 1.64765 13.5459 1.64765 8.2542 4.82269C5.60833 6.41021 4.2854 8.49091 4.2854 10.5716V14.9718Z" fill="url(#paint1_linear_21_234)"/>
</mask>
<g mask="url(#mask0_21_234)">
<path d="M17.7932 9.48242V17.3747V23.1268H7.35931V13.8522L17.7932 9.48242Z" fill="#FFA412"/>
<path d="M25.9085 15.6358V17.018V22.77H21.884V17.018L17.7932 9.48242L25.9085 15.6358Z" fill="#FFE854"/>
</g>
<g filter="url(#filter0_i_21_234)">
<circle cx="7.20809" cy="7.20809" r="7.20809" transform="matrix(0.866041 -0.499972 0.866041 0.499972 5.35077 10.46)" fill="#FF9C12"/>
</g>
<circle cx="10.2973" cy="10.2973" r="10.2973" transform="matrix(0.866041 -0.499972 0.866041 0.499972 0 10.2969)" stroke="url(#paint2_linear_21_234)" stroke-width="0.445893"/>
<ellipse cx="7.19601" cy="7.1711" rx="7.19601" ry="7.1711" transform="matrix(0.866041 -0.499972 0.866041 0.499972 5.39319 10.3984)" stroke="url(#paint3_linear_21_234)" stroke-width="0.445893"/>
<g filter="url(#filter1_di_21_234)">
<path d="M18.799 12.8721C19.6966 13.2204 20.6572 12.5347 20.6195 11.5726L20.4938 8.36411C20.4599 7.49921 19.626 6.89373 18.7931 7.12929L14.0827 8.46152C12.8471 8.81097 12.7658 10.5314 13.9629 10.9958L18.799 12.8721Z" fill="url(#paint4_linear_21_234)"/>
</g>
<defs>
<filter id="filter0_i_21_234" x="9.00757" y="5.36328" width="17.6564" height="10.1934" filterUnits="userSpaceOnUse" color-interpolation-filters="sRGB">
<feFlood flood-opacity="0" result="BackgroundImageFix"/>
<feBlend mode="normal" in="SourceGraphic" in2="BackgroundImageFix" result="shape"/>
<feColorMatrix in="SourceAlpha" type="matrix" values="0 0 0 0 0 0 0 0 0 0 0 0 0 0 0 0 0 0 127 0" result="hardAlpha"/>
<feOffset dy="0.445893"/>
<feComposite in2="hardAlpha" operator="arithmetic" k2="-1" k3="1"/>
<feColorMatrix type="matrix" values="0 0 0 0 0.964706 0 0 0 0 0.564706 0 0 0 0 0.00784314 0 0 0 1 0"/>
<feBlend mode="normal" in2="shape" result="effect1_innerShadow_21_234"/>
</filter>
<filter id="filter1_di_21_234" x="13.109" y="7.07812" width="7.51154" height="6.42081" filterUnits="userSpaceOnUse" color-interpolation-filters="sRGB">
<feFlood flood-opacity="0" result="BackgroundImageFix"/>
<feColorMatrix in="SourceAlpha" type="matrix" values="0 0 0 0 0 0 0 0 0 0 0 0 0 0 0 0 0 0 127 0" result="hardAlpha"/>
<feOffset dy="0.535072"/>
<feComposite in2="hardAlpha" operator="out"/>
<feColorMatrix type="matrix" values="0 0 0 0 0 0 0 0 0 0 0 0 0 0 0 0 0 0 0.25 0"/>
<feBlend mode="normal" in2="BackgroundImageFix" result="effect1_dropShadow_21_234"/>
<feBlend mode="normal" in="SourceGraphic" in2="effect1_dropShadow_21_234" result="shape"/>
<feColorMatrix in="SourceAlpha" type="matrix" values="0 0 0 0 0 0 0 0 0 0 0 0 0 0 0 0 0 0 127 0" result="hardAlpha"/>
<feOffset dy="0.178357"/>
<feComposite in2="hardAlpha" operator="arithmetic" k2="-1" k3="1"/>
<feColorMatrix type="matrix" values="0 0 0 0 1 0 0 0 0 0.956863 0 0 0 0 0.666667 0 0 0 1 0"/>
<feBlend mode="normal" in2="shape" result="effect2_innerShadow_21_234"/>
</filter>
<linearGradient id="paint0_linear_21_234" x1="28.0042" y1="2.43723" x2="5.44198" y2="21.2985" gradientUnits="userSpaceOnUse">
<stop stop-color="#FFD843"/>
<stop offset="0.479167" stop-color="#FFBF2B"/>
<stop offset="1" stop-color="#FFA412"/>
</linearGradient>
<linearGradient id="paint1_linear_21_234" x1="28.0042" y1="2.43723" x2="5.44198" y2="21.2985" gradientUnits="userSpaceOnUse">
<stop stop-color="#FFD843"/>
<stop offset="0.479167" stop-color="#FFBF2B"/>
<stop offset="1" stop-color="#FFA412"/>
</linearGradient>
<linearGradient id="paint2_linear_21_234" x1="18.0245" y1="-0.00416737" x2="-2.68974" y2="13.1973" gradientUnits="userSpaceOnUse">
<stop stop-color="#FFD843"/>
<stop offset="0.479167" stop-color="#FFBF2B"/>
<stop offset="1" stop-color="#FFA412"/>
</linearGradient>
<linearGradient id="paint3_linear_21_234" x1="12.596" y1="-0.00290219" x2="-1.85062" y2="9.2361" gradientUnits="userSpaceOnUse">
<stop stop-color="#FFD843"/>
<stop offset="0.479167" stop-color="#FFBF2B"/>
<stop offset="1" stop-color="#FFA412"/>
</linearGradient>
<linearGradient id="paint4_linear_21_234" x1="20.037" y1="14.0405" x2="11.8612" y2="6.12498" gradientUnits="userSpaceOnUse">
<stop stop-color="#FFD843"/>
<stop offset="0.479167" stop-color="#FFBF2B"/>
<stop offset="1" stop-color="#FFA412"/>
</linearGradient>
</defs>
</svg>
