<svg width="166" height="54" viewBox="0 0 166 54" fill="none" xmlns="http://www.w3.org/2000/svg">
<path d="M70.1961 48L76.4185 18.0959H68.0957L69.9073 9.61564H96.8971L95.033 18.0959H86.6841L80.4617 48H70.1961ZM89.4156 48L108.949 9.61564H122.155L125.385 48H115.381L115.119 40.8062H103.357L100.075 48H89.4156ZM107.111 32.6148H114.804L114.41 21.5878C114.393 20.7301 114.375 19.8812 114.358 19.0411C114.34 18.2009 114.34 17.4045 114.358 16.6519H114.2C113.937 17.457 113.649 18.2447 113.334 19.0148C113.036 19.785 112.704 20.5726 112.336 21.3777L107.111 32.6148ZM144.998 48.5251C140.657 48.5251 137.165 47.2474 134.522 44.6919C131.897 42.1189 130.584 38.2945 130.584 33.2186C130.584 30.7507 130.873 28.344 131.45 25.9986C132.046 23.6356 132.929 21.4303 134.102 19.3824C135.292 17.3345 136.78 15.5317 138.565 13.9739C140.351 12.4161 142.451 11.1997 144.867 10.3245C147.282 9.44936 150.021 9.01178 153.084 9.01178C155.307 9.01178 157.434 9.24808 159.464 9.72066C161.495 10.1932 163.289 10.8934 164.846 11.821L160.987 19.9337C159.884 19.2861 158.65 18.7348 157.285 18.2797C155.937 17.8071 154.493 17.5708 152.953 17.5708C150.713 17.5708 148.822 18.0872 147.282 19.1198C145.759 20.1525 144.534 21.474 143.606 23.0843C142.679 24.6771 142.005 26.3661 141.585 28.1515C141.182 29.9193 140.981 31.5558 140.981 33.0611C140.981 34.6714 141.191 35.9929 141.611 37.0255C142.031 38.0407 142.644 38.7934 143.449 39.2834C144.271 39.756 145.278 39.9923 146.468 39.9923C147.168 39.9923 147.746 39.9661 148.201 39.9136C148.673 39.8435 149.26 39.7473 149.96 39.6248L151.299 33.5337H145.287L147.046 25.526H163.061L158.677 46.3985C156.839 46.9936 154.817 47.5012 152.612 47.9212C150.406 48.3238 147.868 48.5251 144.998 48.5251Z" fill="black"/>
<path d="M0 48.3844L8.1127 10H18.2733C22.6841 10 26.0622 10.8752 28.4076 12.6255C30.753 14.3758 31.9257 17.01 31.9257 20.5281C31.9257 22.8736 31.5406 24.8339 30.7705 26.4092C30.0004 27.967 29.0464 29.2184 27.9087 30.1636C26.771 31.1088 25.6421 31.8264 24.5219 32.3165L31.4531 48.3844H20.2686L15.149 34.4169H13.2324L10.2656 48.3844H0ZM14.8864 26.6192H16.2254C16.908 26.6192 17.5731 26.523 18.2208 26.3304C18.8684 26.1204 19.446 25.8053 19.9536 25.3852C20.4787 24.9477 20.89 24.3876 21.1875 23.7049C21.5026 23.0048 21.6601 22.1647 21.6601 21.1845C21.6601 20.2568 21.3976 19.4692 20.8725 18.8216C20.3474 18.174 19.4285 17.8502 18.1157 17.8502H16.7242L14.8864 26.6192Z" fill="black"/>
<path d="M39.7418 10H65.7315L64 18H38L39.7418 10Z" fill="#054F46"/>
<path d="M34.7418 40H60.7315L59 48H33L34.7418 40Z" fill="#054F46"/>
<path d="M45.7016 25H62.6091L60.8761 33H44L45.7016 25Z" fill="#054F46"/>
</svg>
