<svg width="137" height="55" viewBox="0 0 137 55" fill="none" xmlns="http://www.w3.org/2000/svg">
<path d="M0.866405 48L8.9791 9.61564H19.1397C23.5505 9.61564 26.9286 10.4908 29.274 12.2411C31.6194 13.9914 32.7921 16.6256 32.7921 20.1438C32.7921 22.4892 32.407 24.4495 31.6369 26.0248C30.8668 27.5826 29.9128 28.8341 28.7751 29.7792C27.6374 30.7244 26.5085 31.442 25.3883 31.9321L32.3195 48H21.135L16.0154 34.0325H14.0988L11.132 48H0.866405ZM15.7528 26.2349H17.0918C17.7744 26.2349 18.4395 26.1386 19.0872 25.9461C19.7348 25.736 20.3124 25.421 20.82 25.0009C21.3451 24.5633 21.7564 24.0032 22.0539 23.3206C22.369 22.6205 22.5265 21.7803 22.5265 20.8001C22.5265 19.8725 22.264 19.0848 21.7389 18.4372C21.2138 17.7896 20.2949 17.4658 18.9821 17.4658H17.5906L15.7528 26.2349ZM44.3715 48.5251C42.4636 48.5251 40.5908 48.3501 38.753 48C36.9151 47.6324 35.4186 47.1161 34.2634 46.451V37.7344C35.8212 38.6796 37.4315 39.3535 39.0943 39.756C40.7746 40.1586 42.4636 40.3599 44.1614 40.3599C45.1941 40.3599 46.148 40.2724 47.0232 40.0973C47.9159 39.9223 48.686 39.651 49.3336 39.2834C49.9812 38.9159 50.4801 38.4345 50.8301 37.8394C51.1977 37.2268 51.3815 36.4917 51.3815 35.634C51.3815 34.8814 51.1977 34.2513 50.8301 33.7437C50.4626 33.2186 49.7537 32.8248 48.7035 32.5622C47.6533 32.2822 46.1043 32.1422 44.0564 32.1422H41.851L43.2425 24.5021H45.2904C46.5506 24.5021 47.6796 24.4058 48.6772 24.2132C49.6749 24.0032 50.5326 23.7057 51.2502 23.3206C51.9678 22.918 52.5104 22.4367 52.878 21.8766C53.2631 21.3165 53.4556 20.6689 53.4556 19.9337C53.4556 19.3211 53.1931 18.726 52.668 18.1484C52.1604 17.5533 51.2415 17.2558 49.9112 17.2558C48.7385 17.2558 47.5658 17.457 46.3931 17.8596C45.2204 18.2622 44.0302 18.796 42.8224 19.4612L38.6742 12.95C40.547 11.7598 42.4724 10.8146 44.4502 10.1145C46.4281 9.41436 48.896 9.06429 51.8541 9.06429C54.147 9.06429 56.1598 9.43186 57.8926 10.167C59.643 10.8846 61.0082 11.9173 61.9884 13.265C62.9685 14.6128 63.4586 16.2406 63.4586 18.1484C63.4586 20.0213 63.0736 21.6315 62.3034 22.9793C61.5333 24.3095 60.4744 25.386 59.1266 26.2086C57.7789 27.0313 56.2298 27.6264 54.4795 27.9939V28.204C56.86 28.659 58.654 29.6655 59.8617 31.2233C61.087 32.781 61.6996 34.6101 61.6996 36.7105C61.6996 38.7934 61.2445 40.5787 60.3343 42.0664C59.4242 43.5542 58.1639 44.7794 56.5537 45.7421C54.9609 46.6873 53.123 47.3874 51.0402 47.8425C48.9573 48.2976 46.7344 48.5251 44.3715 48.5251Z" fill="#054F46"/>
<path d="M77.336 48.3465C75.7228 48.3465 74.3873 48.0335 73.3295 47.4077C72.2717 46.773 71.4827 45.8915 70.9626 44.7631C70.4425 43.6348 70.1825 42.3213 70.1825 40.8228C70.1825 39.668 70.3059 38.5044 70.5527 37.332C70.7995 36.1596 71.183 35.0444 71.7031 33.9866C72.2232 32.92 72.8887 31.9724 73.6997 31.1438C74.5107 30.3063 75.476 29.6496 76.5955 29.1736C77.715 28.6887 79.002 28.4463 80.4565 28.4463C81.7435 28.4463 82.8983 28.6006 83.9209 28.9091C84.9434 29.2088 85.9087 29.632 86.8166 30.1785L84.8597 34.2114C84.0399 33.7266 83.2862 33.3652 82.5986 33.1272C81.911 32.8803 81.197 32.7569 80.4565 32.7569C79.8306 32.7569 79.2533 32.898 78.7243 33.18C78.2043 33.4621 77.7371 33.8544 77.3227 34.3569C76.9172 34.8593 76.569 35.4411 76.2781 36.1023C75.9961 36.7546 75.7801 37.4642 75.6302 38.2311C75.4892 38.9892 75.4187 39.765 75.4187 40.5583C75.4187 41.7307 75.6655 42.6122 76.1591 43.2029C76.6616 43.7847 77.3712 44.0756 78.288 44.0756C79.0725 44.0756 79.8395 43.9786 80.5887 43.7847C81.338 43.5907 82.1931 43.291 83.154 42.8855V47.1564C82.2107 47.5796 81.2543 47.8837 80.2846 48.0688C79.3238 48.2539 78.3409 48.3465 77.336 48.3465ZM85.6536 54.5876C85.1423 54.5876 84.7236 54.5612 84.3974 54.5083C84.0713 54.4642 83.8112 54.4157 83.6173 54.3628V50.3034C83.7848 50.3387 83.9919 50.374 84.2387 50.4092C84.4856 50.4445 84.7588 50.4621 85.0585 50.4621C85.8431 50.4621 86.4734 50.2946 86.9494 49.9597C87.4342 49.6335 87.8662 49.1354 88.2452 48.4655L88.5493 47.9234L86.4073 33.1007H91.5509L92.0666 39.9897C92.093 40.2895 92.1062 40.5848 92.1062 40.8757C92.1151 41.1577 92.1151 41.4354 92.1062 41.7087C92.1062 41.9731 92.1018 42.2376 92.093 42.5021H92.1988C92.287 42.2288 92.3839 41.9379 92.4897 41.6294C92.5955 41.312 92.7057 41.0035 92.8203 40.7038C92.9349 40.404 93.0362 40.1484 93.1244 39.9368L96.0731 33.1007H101.574L92.7145 49.9729C92.1768 51.0131 91.5773 51.8725 90.9162 52.5513C90.2551 53.2389 89.497 53.7502 88.6419 54.0851C87.7868 54.4201 86.7907 54.5876 85.6536 54.5876ZM106.202 48.3465C105.188 48.3465 104.258 48.1393 103.412 47.725C102.566 47.3107 101.887 46.654 101.376 45.7548C100.873 44.8557 100.622 43.6833 100.622 42.2376C100.622 41.1798 100.741 40.1793 100.979 39.236C101.226 38.2928 101.579 37.4289 102.037 36.6444C102.495 35.8598 103.051 35.1855 103.703 34.6213C104.364 34.0483 105.109 33.6076 105.938 33.2991C106.766 32.9905 107.665 32.8363 108.635 32.8363C109.57 32.8363 110.42 32.9244 111.187 33.1007C111.963 33.277 112.73 33.5415 113.488 33.8941L111.861 37.689C111.412 37.4862 110.923 37.3055 110.394 37.1469C109.874 36.9794 109.371 36.8956 108.886 36.8956C108.357 36.8956 107.895 37.0631 107.498 37.3981C107.11 37.7242 106.788 38.1474 106.533 38.6675C106.277 39.1876 106.083 39.7385 105.951 40.3203C105.828 40.8933 105.766 41.4222 105.766 41.907C105.766 42.4888 105.832 42.9516 105.964 43.2954C106.096 43.6304 106.286 43.8728 106.533 44.0227C106.78 44.1637 107.075 44.2342 107.419 44.2342C108.053 44.2342 108.666 44.1329 109.257 43.9301C109.856 43.7274 110.491 43.4497 111.161 43.0971V47.1564C110.455 47.5355 109.715 47.8308 108.939 48.0424C108.164 48.2451 107.251 48.3465 106.202 48.3465ZM112.92 48.082L117.27 27.5075H122.387L118.037 48.082H112.92ZM127.915 48.3465C126.654 48.3465 125.583 48.1085 124.702 47.6325C123.82 47.1564 123.146 46.4777 122.679 45.5962C122.22 44.7058 121.991 43.648 121.991 42.4227C121.991 41.1974 122.163 40.0118 122.507 38.8658C122.859 37.7198 123.388 36.6929 124.094 35.7849C124.808 34.877 125.702 34.1585 126.778 33.6296C127.853 33.1007 129.118 32.8363 130.573 32.8363C132.256 32.8363 133.574 33.2153 134.526 33.9734C135.487 34.7315 135.968 35.7408 135.968 37.0014C135.968 37.83 135.809 38.5837 135.492 39.2625C135.174 39.9324 134.685 40.5098 134.024 40.9947C133.371 41.4795 132.538 41.8541 131.525 42.1186C130.511 42.3742 129.308 42.5021 127.915 42.5021H127.135C127.135 42.5373 127.135 42.5726 127.135 42.6078C127.135 42.6343 127.135 42.6695 127.135 42.7136C127.135 43.3836 127.315 43.8772 127.677 44.1946C128.038 44.5119 128.58 44.6706 129.303 44.6706C130.061 44.6706 130.78 44.556 131.459 44.3268C132.137 44.0976 132.865 43.7802 133.64 43.3747V46.9978C132.838 47.4033 132.01 47.7294 131.154 47.9762C130.299 48.2231 129.22 48.3465 127.915 48.3465ZM127.65 39.3022H128.034C128.801 39.3022 129.409 39.2008 129.859 38.998C130.308 38.7953 130.63 38.5396 130.824 38.2311C131.018 37.9226 131.115 37.6141 131.115 37.3055C131.115 37.0234 131.027 36.7854 130.85 36.5915C130.674 36.3976 130.392 36.3006 130.004 36.3006C129.607 36.3006 129.242 36.4549 128.907 36.7634C128.572 37.0719 128.294 37.4598 128.074 37.927C127.853 38.3854 127.712 38.8438 127.65 39.3022Z" fill="black"/>
</svg>
